<?xml version="1.0" encoding="utf-8"?>
<!-- Generator: Adobe Illustrator 25.2.0, SVG Export Plug-In . SVG Version: 6.00 Build 0)  -->
<svg version="1.1" id="Layer_1" xmlns="http://www.w3.org/2000/svg" xmlns:xlink="http://www.w3.org/1999/xlink" x="0px" y="0px"
	 viewBox="0 0 992.13 649.33" style="enable-background:new 0 0 992.13 649.33;" xml:space="preserve">
<style type="text/css">
	.st0{fill:#466432;}
	.st1{fill:#B3B736;}
	.st2{fill:#F26423;}
	.st3{fill:#F8D3B4;}
	.st4{fill:#D8B193;}
	.st5{fill:#E6E8E6;}
	.st6{fill:#E583A3;}
	.st7{fill:#85966F;}
	.st8{fill:#5D7049;}
	.st9{opacity:0.85;}
	.st10{fill:#FCC8A8;}
	.st11{fill:#FAB58D;}
	.st12{fill:#F79663;}
	.st13{fill:#FDDBC4;}
	.st14{fill:#F9A679;}
	.st15{fill:#F5874E;}
	.st16{opacity:0.65;}
	.st17{fill:#FFFFFF;}
	.st18{fill:none;stroke:#000000;stroke-miterlimit:10;}
	.st19{fill:#834830;}
	.st20{fill:#475633;}
	.st21{fill:#7552A2;}
	.st22{fill:#8451A1;}
	.st23{fill:#E9A2C8;}
	.st24{fill:none;}
	.st25{fill:none;stroke:#C4C6C4;stroke-miterlimit:10;}
	.st26{fill:#C4C6C4;}
	.st27{fill:none;stroke:#C4C6C4;stroke-width:3;stroke-miterlimit:10;}
	.st28{fill:#4A5938;}
	.st29{clip-path:url(#XMLID_5_);fill:#F26423;}
	.st30{fill:none;stroke:#466432;stroke-width:0.5;stroke-miterlimit:10;}
	.st31{fill:none;stroke:#466432;stroke-miterlimit:10;}
	.st32{fill:none;stroke:#85966F;stroke-miterlimit:10;}
	.st33{fill:#E9C2A4;}
	.st34{fill:#E584A3;}
	.st35{fill:#DA5326;}
	.st36{opacity:0.13;}
	.st37{fill:#B3B737;}
	.st38{fill:#E3E1B7;}
	.st39{fill:#DAD89F;}
	.st40{fill:#CBCB79;}
	.st41{fill:#ECEACF;}
	.st42{fill:#D2D28D;}
	.st43{fill:#C3C463;}
	.st44{fill:#F17948;}
	.st45{fill:#AF4425;}
	.st46{fill:none;stroke:#E4E2B9;stroke-miterlimit:10;}
	.st47{fill:#BB8D6F;}
	.st48{fill:none;stroke:#5B7244;stroke-miterlimit:10;}
	.st49{fill:none;stroke:#FFFFFF;stroke-width:3;stroke-linecap:round;stroke-linejoin:round;stroke-miterlimit:10;}
	.st50{fill:none;stroke:#FFFFFF;stroke-width:2;stroke-miterlimit:10;}
</style>
<g>
	<path class="st0" d="M147.99,650.45c-17.64-88.13,112.51-66.59,185.86-118.53c80.1-56.72,147.26-172.44,199.83-255.33
		C575.71,210.32,566.25,115.13,638,68.81c33.61-21.7,75.01-27.5,115.01-28.5c75.16-1.87,150.02-3.32,225.18-0.58
		c7.99,0.32,28.12-2.63,32.77,5.27c4.14,7.04-0.3,29.59-0.38,37.43c-0.69,68.19-1.39,136.38-2.08,204.57
		c-0.82,80.87-1.64,161.74-2.46,242.6c-0.4,39.58-0.8,86.29-1.2,125.89L147.99,650.45z"/>
</g>
</svg>
