<?xml version="1.0" encoding="utf-8"?>
<!-- Generator: Adobe Illustrator 25.2.0, SVG Export Plug-In . SVG Version: 6.00 Build 0)  -->
<svg version="1.1" id="Layer_1" xmlns="http://www.w3.org/2000/svg" xmlns:xlink="http://www.w3.org/1999/xlink" x="0px" y="0px"
	 viewBox="0 0 992.13 649.33" style="enable-background:new 0 0 992.13 649.33;" xml:space="preserve">
<style type="text/css">
	.st0{fill:#466432;}
	.st1{fill:#B3B736;}
	.st2{fill:#F26423;}
	.st3{fill:#F8D3B4;}
	.st4{fill:#D8B193;}
	.st5{fill:#E6E8E6;}
	.st6{fill:#E583A3;}
	.st7{fill:#85966F;}
	.st8{fill:#5D7049;}
	.st9{opacity:0.85;}
	.st10{fill:#FCC8A8;}
	.st11{fill:#FAB58D;}
	.st12{fill:#F79663;}
	.st13{fill:#FDDBC4;}
	.st14{fill:#F9A679;}
	.st15{fill:#F5874E;}
	.st16{opacity:0.65;}
	.st17{fill:#FFFFFF;}
	.st18{fill:none;stroke:#000000;stroke-miterlimit:10;}
	.st19{fill:#834830;}
	.st20{fill:#475633;}
	.st21{fill:#7552A2;}
	.st22{fill:#8451A1;}
	.st23{fill:#E9A2C8;}
	.st24{fill:none;}
	.st25{fill:none;stroke:#C4C6C4;stroke-miterlimit:10;}
	.st26{fill:#C4C6C4;}
	.st27{fill:none;stroke:#C4C6C4;stroke-width:3;stroke-miterlimit:10;}
	.st28{fill:#4A5938;}
	.st29{clip-path:url(#XMLID_5_);fill:#F26423;}
	.st30{fill:none;stroke:#466432;stroke-width:0.5;stroke-miterlimit:10;}
	.st31{fill:none;stroke:#466432;stroke-miterlimit:10;}
	.st32{fill:none;stroke:#85966F;stroke-miterlimit:10;}
	.st33{fill:#E9C2A4;}
	.st34{fill:#E584A3;}
	.st35{fill:#DA5326;}
	.st36{opacity:0.13;}
	.st37{fill:#B3B737;}
	.st38{fill:#E3E1B7;}
	.st39{fill:#DAD89F;}
	.st40{fill:#CBCB79;}
	.st41{fill:#ECEACF;}
	.st42{fill:#D2D28D;}
	.st43{fill:#C3C463;}
	.st44{fill:#F17948;}
	.st45{fill:#AF4425;}
	.st46{fill:none;stroke:#E4E2B9;stroke-miterlimit:10;}
	.st47{fill:#BB8D6F;}
	.st48{fill:none;stroke:#5B7244;stroke-miterlimit:10;}
	.st49{fill:none;stroke:#FFFFFF;stroke-width:3;stroke-linecap:round;stroke-linejoin:round;stroke-miterlimit:10;}
	.st50{fill:none;stroke:#FFFFFF;stroke-width:2;stroke-miterlimit:10;}
	.st51{fill:none;stroke:#FFFFFF;stroke-width:10;stroke-linecap:round;stroke-linejoin:round;stroke-miterlimit:10;}
</style>
<g>
	<path class="st2" d="M639.2,485.74H352.92c-16.08,0-29.12-13.04-29.12-29.12V189.48c0-16.08,13.04-29.12,29.12-29.12H639.2
		c16.08,0,29.12,13.04,29.12,29.12v267.14C668.32,472.7,655.29,485.74,639.2,485.74z"/>
	<path class="st17" d="M495.32,488.97v-116.7h-30.18c-5.11,0-9.25-4.14-9.25-9.25v-36.51c0-6.25,5.07-11.32,11.32-11.32h24.4
		c0,0-21.83-118.94,94.26-99.18c5.9,1,10.16,6.21,10.16,12.2v24.99c0,5.54-4.64,9.97-10.16,9.64c-14.3-0.85-41.99-2.01-42.6,16.74
		c-0.99,30.34,0,35.61,0,35.61h44.56c6.73,0,11.71,6.26,10.19,12.82l-2.96,31.36c-0.69,7.32-6.84,12.91-14.19,12.91h-34.3
		l-1.65,116.7H495.32z"/>
</g>
</svg>
